<svg width="40" height="40" viewBox="0 0 40 40" fill="none" xmlns="http://www.w3.org/2000/svg">
  <path d="M20 0C12.0645 0 5.625 6.43945 5.625 14.375C5.625 17.0176 6.31348 19.6094 7.66602 21.875L19.082 39.6094C19.3066 39.9609 19.6875 40.1172 20.0684 39.9609C20.4102 39.8828 20.6934 39.5781 20.7715 39.2363L23.3398 30.8887C23.418 30.5859 23.3398 30.2832 23.1055 30.0488C22.8711 29.8145 22.5684 29.7363 22.2656 29.8145L20.3906 30.4199L27.4219 22.4805C28.6914 20.9961 29.8047 19.1211 30.5273 17.168C31.1719 15.2148 31.4746 13.1836 31.4746 11.1523C31.4746 8.28125 30.4395 5.56641 28.5254 3.49609C26.5332 1.42578 23.8965 0 21.0254 0H20H20Z" fill="#4338CA"/>
  <circle cx="20" cy="14" r="7" fill="white"/>
</svg> 