<svg width="128" height="128" viewBox="0 0 128 128" fill="none" xmlns="http://www.w3.org/2000/svg">
  <!-- Background elements -->
  <circle cx="64" cy="64" r="60" fill="#F0F7FF" opacity="0.5"/>
  
  <!-- "404" text -->
  <path d="M38 45V65H30V75H38V85H48V75H58V65H48V45H38ZM48 65V65H48V65Z" fill="#0070F3" opacity="0.2"/>
  <path d="M38 45V65H30V75H38V85H48V75H58V65H48V45H38Z" stroke="#0070F3" stroke-width="2" stroke-linecap="round" stroke-linejoin="round"/>
  
  <path d="M70 45V85H80V45L90 55V45H70Z" fill="#0070F3" opacity="0.2"/>
  <path d="M70 45V85H80V45L90 55V45H70Z" stroke="#0070F3" stroke-width="2" stroke-linecap="round" stroke-linejoin="round"/>
  
  <!-- Decorative elements -->
  <circle cx="30" cy="35" r="4" fill="#0070F3" opacity="0.3"/>
  <circle cx="98" cy="40" r="3" fill="#0070F3" opacity="0.3"/>
  <circle cx="85" cy="90" r="5" fill="#0070F3" opacity="0.3"/>
  <circle cx="25" cy="85" r="3" fill="#0070F3" opacity="0.3"/>
  
  <!-- Prosthetic arm icon (simplified) -->
  <g transform="translate(90, 25) scale(0.6) rotate(15)">
    <path d="M10 5C10 2.791 8.209 1 6 1C3.791 1 2 2.791 2 5V30C2 35.523 6.477 40 12 40H18C23.523 40 28 35.523 28 30V20" stroke="#0070F3" stroke-width="2" stroke-linecap="round"/>
    <path d="M10 10V30" stroke="#0070F3" stroke-width="2" stroke-linecap="round"/>
    <path d="M20 20V30" stroke="#0070F3" stroke-width="2" stroke-linecap="round"/>
    <path d="M28 10C28 7.791 26.209 6 24 6C21.791 6 20 7.791 20 10V20" stroke="#0070F3" stroke-width="2" stroke-linecap="round"/>
  </g>
  
  <!-- Map pin location icon -->
  <g transform="translate(15, 15) scale(0.5)">
    <path d="M30 15C30 23.284 15 40 15 40C15 40 0 23.284 0 15C0 6.716 6.716 0 15 0C23.284 0 30 6.716 30 15Z" fill="#0070F3" opacity="0.2"/>
    <path d="M30 15C30 23.284 15 40 15 40C15 40 0 23.284 0 15C0 6.716 6.716 0 15 0C23.284 0 30 6.716 30 15Z" stroke="#0070F3" stroke-width="2"/>
    <circle cx="15" cy="15" r="5" fill="white" stroke="#0070F3" stroke-width="2"/>
  </g>
</svg> 