<?xml version="1.0" encoding="UTF-8"?>
<svg id="Layer_1" data-name="Layer 1" xmlns="http://www.w3.org/2000/svg" viewBox="0 0 567.81 162.12">
  <defs>
    <style>
      .cls-1 {
        fill: #e40202;
      }

      .cls-1, .cls-2 {
        stroke-width: 0px;
      }

      .cls-2 {
        fill: #333;
      }
    </style>
  </defs>
  <path class="cls-1" d="M85.87,162.04c-27.15,0-54.3.02-81.46-.05-.02,0-.04,0-.06,0-3.36,0-5.51-3.67-3.68-6.49.03-.04.06-.09.09-.13,18.64-26.66,37.37-53.25,56.06-79.88,8.09-11.53,16.11-23.1,24.21-34.62,5.81-8.26,11.49-16.63,17.62-24.66C105.79,6.89,115.84,1.86,127.4.28c8.24-1.13,15.61,1.26,22.52,5.84,8.66,5.74,13.98,14.49,19.93,22.62,9.69,13.23,19.16,26.61,28.75,39.91,3.58,4.97,7.24,9.88,10.84,14.83,7.6,10.42,15.22,20.81,22.77,31.27,10.17,14.1,20.29,28.23,30.33,42.43.13.18.23.39.33.63.79,2.03-.83,4.21-3.01,4.21h-.07c-15.99.04-31.98-.08-47.97.09-3.92.04-6.67-1.27-8.91-4.34-6.94-9.5-13.97-18.95-20.95-28.42-9.82-13.32-19.65-26.62-29.44-39.96-5.77-7.87-11.47-15.79-17.2-23.68-4.24-5.84-4.91-5.97-9.2-.28-5.69,7.54-11.1,15.29-16.66,22.93-5.89,8.1-11.84,16.16-17.72,24.26-.8,1.11-1.56,2.25-2.22,3.44-2.46,4.42-1.79,5.74,3.41,5.97,4.99.22,10.08.65,14.96-.09,2.73-.42,5.68-2.55,7.56-4.75,3.98-4.65,7.33-9.84,10.94-14.8,3.41-4.7,4.69-4.83,8.06-.22,9.51,12.97,18.89,26.04,28.33,39.05,3.41,4.7,6.98,9.28,10.24,14.08.26.39.49.89.69,1.45.91,2.55-.98,5.24-3.69,5.23-.23,0-.46,0-.69,0-27.82.08-55.64.06-83.46.05Z"/>
  <path class="cls-1" d="M288.84,80.68c15,0,30.01.32,45-.11,10.26-.29,19.29-3.76,23.91-13.98,1.06-2.35,1.26-5.08,1.98-7.59,6.58-23,21.85-37.94,43.11-48.21C420.29,2.37,438.58.26,457.44.25c32.66-.02,65.32.09,97.98.13,2.66,0,5.33-.21,7.98-.13,2.76.08,3.79,1.27,1.86,3.75-8.56,10.99-16.82,22.24-25.91,32.77-2.16,2.51-7.08,3.67-10.74,3.7-26.81.21-53.62.07-80.44-.17-17.2-.15-36.03,13.04-41.07,29.38-3.39,11.02-7.84,21.21-16.71,29.24-8.28,7.51-17.88,12.43-28.16,16.13-16.21,5.83-33.18,5.6-50.1,5.39-5.5-.07-11-.05-16.5,0-4.85.05-6.29,1.37-6.08,6.32.33,7.78-.36,15.57.05,23.34,0,.07,0,.14.01.21.1,1.82-2.24,2.65-3.3,1.17-.01-.02-.02-.03-.03-.05-12.43-17.19-24.75-34.46-37.15-51.68-3.29-4.57-6.78-9-10.04-13.6-.53-.76-.88-1.64-1.21-2.55-.35-.98.2-2.06,1.2-2.36.92-.28,1.84-.53,2.76-.54,15.67-.08,31.33-.05,47-.05v.03Z"/>
  <path class="cls-2" d="M174.71.35c2.28,0,4.23,0,6.18,0,48.46,0,96.91.1,145.37-.07,14.76-.05,28.97.81,42.91,6.31-10.34,9.5-19.87,20.44-25.99,33.51-.39.84-1.9,1.7-2.84,1.65-3.59-.2-6.89-.6-10.73-1.15-39.13-.09-78.26-.14-117.39.05-5.27.03-8.58-1.16-11.72-5.9-8.7-12.02-16.91-22.21-25.78-34.39Z"/>
  <path class="cls-2" d="M441.68,162.04c-23.41-1.58-44.2-10.53-61.59-26.59-2.06-1.91-2.69-3,.52-4.49,12.48-5.78,23.66-13.34,32.08-24.46,1.33-1.76,2.14-1.87,3.82-.15,9.2,9.4,20.51,14.27,33.65,14.32,38.29.14,76.58.08,114.88.15.1,0,.19,0,.29,0,2.06.09,3.19,2.44,2.01,4.13-.07.1-.14.2-.22.3-8.95,11.49-17.87,22.99-27.03,34.31-1.2,1.48-3.63,2.45-5.53,2.47h-47.51"/>
</svg>